<svg width="20" height="23" viewBox="0 0 20 23" fill="none" xmlns="http://www.w3.org/2000/svg">
<path d="M9.64272 22.9997C10.3062 23.0005 10.9535 22.7843 11.4946 22.3811C12.0357 21.9779 12.4438 21.4077 12.662 20.7497H6.62348C6.84168 21.4077 7.24969 21.9779 7.79079 22.3811C8.33189 22.7843 8.97919 23.0005 9.64272 22.9997ZM17.1426 14.659V9.49987C17.1426 5.8808 14.8016 2.83209 11.6302 1.91523C11.3163 1.08499 10.5491 0.5 9.64272 0.5C8.7363 0.5 7.96917 1.08499 7.65525 1.91523C4.48386 2.83322 2.14283 5.8808 2.14283 9.49987V14.659L0.313924 16.5794C0.112981 16.7903 6.06821e-05 17.0764 0 17.3748V18.4997C0 18.7981 0.112881 19.0842 0.31381 19.2952C0.514739 19.5062 0.787257 19.6247 1.07141 19.6247H18.214C18.4982 19.6247 18.7707 19.5062 18.9716 19.2952C19.1726 19.0842 19.2854 18.7981 19.2854 18.4997V17.3748C19.2854 17.0764 19.1725 16.7903 18.9715 16.5794L17.1426 14.659Z" fill="#CCCCCC"/>
</svg>
