<svg width="31" height="31" viewBox="0 0 31 31" xmlns="http://www.w3.org/2000/svg">
<path d="M10.0167 17.2825V26.1046C10.0167 26.6321 9.80714 27.1381 9.4341 27.5111C9.06105 27.8842 8.5551 28.0938 8.02754 28.0938H5.68963C5.42732 28.0955 5.16727 28.0453 4.92444 27.9461C4.68161 27.8469 4.4608 27.7006 4.27471 27.5157C4.08863 27.3308 3.94096 27.111 3.84018 26.8688C3.73941 26.6266 3.68754 26.3669 3.68754 26.1046V17.2825C3.68583 17.0191 3.73644 16.758 3.83645 16.5143C3.93645 16.2706 4.08386 16.0492 4.27011 15.863C4.45637 15.6767 4.67776 15.5293 4.92144 15.4293C5.16511 15.3293 5.42623 15.2787 5.68963 15.2804H8.02754C8.28985 15.2804 8.54958 15.3323 8.79176 15.4331C9.03394 15.5338 9.2538 15.6815 9.43868 15.8676C9.62356 16.0537 9.76981 16.2745 9.86902 16.5173C9.96822 16.7601 10.0184 17.0202 10.0167 17.2825ZM18.6709 4.90833V26.1046C18.6709 26.3669 18.619 26.6266 18.5182 26.8688C18.4175 27.111 18.2698 27.3308 18.0837 27.5157C17.8976 27.7006 17.6768 27.8469 17.434 27.9461C17.1912 28.0453 16.9311 28.0955 16.6688 28.0938H14.3309C13.8021 28.0938 13.2948 27.8846 12.9197 27.5119C12.5446 27.1393 12.3322 26.6333 12.3288 26.1046V4.90833C12.3322 4.37839 12.5442 3.87112 12.9189 3.49639C13.2937 3.12166 13.8009 2.90964 14.3309 2.90625H16.6688C17.1998 2.90625 17.709 3.11718 18.0845 3.49265C18.4599 3.86811 18.6709 4.37735 18.6709 4.90833ZM27.3121 11.5992V26.1046C27.3121 26.6321 27.1026 27.1381 26.7295 27.5111C26.3565 27.8842 25.8505 28.0938 25.323 28.0938H22.985C22.7227 28.0955 22.4627 28.0453 22.2199 27.9461C21.977 27.8469 21.7562 27.7006 21.5701 27.5157C21.384 27.3308 21.2364 27.111 21.1356 26.8688C21.0348 26.6266 20.983 26.3669 20.983 26.1046V11.5992C20.983 11.3362 21.0347 11.0759 21.1354 10.833C21.236 10.5901 21.3834 10.3694 21.5694 10.1835C21.7553 9.99757 21.976 9.8501 22.2189 9.74948C22.4618 9.64887 22.7221 9.59708 22.985 9.59708H25.3746C25.8943 9.61386 26.3871 9.83217 26.7487 10.2058C27.1104 10.5795 27.3124 11.0792 27.3121 11.5992Z"/>
</svg>
