<svg width="101" height="101" viewBox="0 0 101 101" fill="none" xmlns="http://www.w3.org/2000/svg">
<circle cx="50.5" cy="50.5" r="50.5" fill="#FFC898"/>
<mask id="mask0_7_1522" style="mask-type:alpha" maskUnits="userSpaceOnUse" x="0" y="0" width="101" height="101">
<circle cx="50.5" cy="50.5" r="50.5" fill="#FFC898"/>
</mask>
<g mask="url(#mask0_7_1522)">
<path d="M-0.119606 87.9117C-0.119606 60.004 22.504 37.3804 50.4116 37.3804C78.3193 37.3804 100.943 60.004 100.943 87.9117V121.415H-0.119606V87.9117Z" fill="#F28715"/>
<circle cx="29.8447" cy="73.7585" r="0.552858" fill="#FFB668"/>
<circle cx="69.8728" cy="73.7585" r="0.552858" fill="#FFB668"/>
<circle cx="27.1921" cy="75.9699" r="0.552858" fill="#FFB668"/>
<circle cx="67.2203" cy="75.9699" r="0.552858" fill="#FFB668"/>
<circle cx="28.9591" cy="78.1813" r="0.552858" fill="#FFB668"/>
<circle cx="68.9915" cy="78.1813" r="0.552858" fill="#FFB668"/>
<circle cx="31.3935" cy="75.9699" r="0.552858" fill="#FFB668"/>
<circle cx="71.4216" cy="75.9699" r="0.552858" fill="#FFB668"/>
<rect x="31.5034" y="58.6285" width="7.6663" height="2.87486" rx="1.43743" fill="#813D20"/>
<rect x="38.1979" y="64.4363" width="8.77328" height="5.87124" rx="2.93562" transform="rotate(89.5604 38.1979 64.4363)" fill="#813D20"/>
<rect x="61.2816" y="58.6285" width="7.6663" height="2.87486" rx="1.43743" fill="#813D20"/>
<rect x="68.1145" y="64.3783" width="8.77328" height="5.87124" rx="2.93562" transform="rotate(89.5604 68.1145 64.3783)" fill="#813D20"/>
<path d="M40.1289 78.9754C40.1289 76.3995 42.2171 74.3113 44.793 74.3113H55.1465C57.7224 74.3113 59.8106 76.3995 59.8106 78.9754C59.8106 83.4833 56.1563 87.1376 51.6484 87.1376H48.2911C43.7832 87.1376 40.1289 83.4833 40.1289 78.9754Z" fill="#813D20"/>
<path d="M44.773 74.3113H56.0513C56.0513 75.6548 54.9622 76.7439 53.6187 76.7439H47.2056C45.8621 76.7439 44.773 75.6548 44.773 74.3113Z" fill="white"/>
<circle cx="36.1469" cy="66.5713" r="0.884573" fill="white"/>
<circle cx="65.7808" cy="66.5713" r="0.884573" fill="white"/>
<path d="M79.7125 47.3319C79.7125 40.763 76.6254 34.4631 71.1303 29.8182C65.6352 25.1733 58.1823 22.5638 50.411 22.5638C42.6398 22.5638 35.1868 25.1733 29.6917 29.8182C24.1966 34.4631 21.1095 40.763 21.1095 47.3319L50.411 47.3319H79.7125Z" fill="#927B42"/>
<ellipse cx="50.301" cy="46.3367" rx="38.7001" ry="6.52373" fill="#927B42"/>
</g>
</svg>
