<svg width="101" height="101" viewBox="0 0 101 101" fill="none" xmlns="http://www.w3.org/2000/svg">
<circle cx="50.5" cy="50.5" r="50.5" fill="#FFC898"/>
<mask id="mask0_1_2326" style="mask-type:alpha" maskUnits="userSpaceOnUse" x="0" y="0" width="101" height="101">
<circle cx="50.5" cy="50.5" r="50.5" fill="#D9D9D9"/>
</mask>
<g mask="url(#mask0_1_2326)">
<path d="M49.6314 26.8091C50.9916 26.402 52.0429 26.9727 52.413 28.2091C52.783 29.4456 52.2137 30.5013 50.858 30.9071C49.5023 31.3129 48.4532 30.7656 48.0765 29.507C47.6998 28.2485 48.2757 27.2148 49.6314 26.8091ZM47.2793 26.4738L43.9301 15.2838C43.5362 13.9678 44.3236 12.9815 45.3967 12.6604C46.4698 12.3392 47.6761 12.7528 48.0634 14.0467L51.4126 25.2367L47.2749 26.4751L47.2793 26.4738Z" fill="#F28715"/>
<path d="M-0.000488281 86.982C-0.000488281 59.0743 22.6231 36.4507 50.5308 36.4507C78.4384 36.4507 101.062 59.0743 101.062 86.9819V120.485H-0.000488281V86.982Z" fill="#F28715"/>
<circle cx="70" cy="74" r="6" fill="#FFB668"/>
<circle cx="31" cy="74" r="6" fill="#FFB668"/>
<rect x="32.075" y="56.8276" width="7.6663" height="2.87486" rx="1.43743" transform="rotate(13.7704 32.075 56.8276)" fill="#813D20"/>
<rect x="38.317" y="63.5063" width="8.77328" height="5.87124" rx="2.93562" transform="rotate(89.5604 38.317 63.5063)" fill="#813D20"/>
<rect x="61.1428" y="59.0081" width="7.6663" height="2.87486" rx="1.43743" transform="rotate(-18.7626 61.1428 59.0081)" fill="#813D20"/>
<rect x="68.2336" y="63.4487" width="8.77328" height="5.87124" rx="2.93562" transform="rotate(89.5604 68.2336 63.4487)" fill="#813D20"/>
<path d="M44.8922 73.3816H56.1705C56.1705 74.7251 55.0814 75.8142 53.7379 75.8142H47.3247C45.9812 75.8142 44.8922 74.7251 44.8922 73.3816Z" fill="white"/>
<circle cx="36.266" cy="65.6414" r="0.884573" fill="white"/>
<circle cx="65.8999" cy="65.6414" r="0.884573" fill="white"/>
</g>
</svg>
