<svg width="28" height="28" viewBox="0 0 28 28" xmlns="http://www.w3.org/2000/svg">
<path d="M4.5918 21.8069V11.4773C4.5918 11.1139 4.67329 10.7696 4.83626 10.4444C4.99924 10.1192 5.22381 9.85137 5.50998 9.64095L12.3963 4.47618C12.798 4.17012 13.2571 4.01709 13.7736 4.01709C14.2901 4.01709 14.7492 4.17012 15.1509 4.47618L22.0373 9.64095C22.3242 9.85137 22.5491 10.1192 22.7121 10.4444C22.8751 10.7696 22.9562 11.1139 22.9554 11.4773V21.8069C22.9554 22.4381 22.7305 22.9787 22.2806 23.4286C21.8307 23.8785 21.2905 24.1031 20.66 24.1023H17.2168C16.8916 24.1023 16.6192 23.9921 16.3996 23.7718C16.18 23.5514 16.0698 23.279 16.0691 22.9546V17.216C16.0691 16.8908 15.9589 16.6184 15.7385 16.3988C15.5182 16.1792 15.2458 16.069 14.9213 16.0682H12.6259C12.3007 16.0682 12.0283 16.1784 11.8087 16.3988C11.5891 16.6191 11.4789 16.8915 11.4782 17.216V22.9546C11.4782 23.2798 11.368 23.5526 11.1476 23.7729C10.9273 23.9933 10.6549 24.1031 10.3304 24.1023H6.88725C6.256 24.1023 5.7158 23.8777 5.26666 23.4286C4.81752 22.9795 4.59256 22.4389 4.5918 21.8069Z"/>
</svg>
