<svg width="56" height="23" viewBox="0 0 56 23" fill="none" xmlns="http://www.w3.org/2000/svg">
<path d="M2.88766 12.3598C0.50772 12.3598 0 11.7516 0 9.35052V3.71271C0 1.30632 0.50772 0.724559 2.88766 0.724559H13.6185C14.9778 0.724559 15.4643 1.57605 15.4643 2.54389C15.4643 3.56462 14.9566 4.36322 13.6185 4.36322H11.6035V8.71058H14.2479C15.6336 8.71058 16.0937 9.56207 16.0937 10.5299C16.0937 11.5506 15.6071 12.3492 14.2479 12.3492H2.88237L2.88766 12.3598ZM6.16669 13.5974H16.7072C20.2295 13.5974 21.9748 15.4908 21.9748 18.2356C21.9748 20.9805 20.2242 22.8739 16.7072 22.8739H6.16669C2.62322 22.8739 0.899088 20.9065 0.899088 18.2356C0.899088 15.5648 2.62322 13.5974 6.16669 13.5974ZM4.469 8.20815C4.469 8.62067 4.5642 8.71587 5.1248 8.71587H7.21386V4.36851H5.1248C4.5642 4.36851 4.469 4.46371 4.469 4.87623V8.20286V8.20815ZM7.16626 19.452H15.7129C16.6596 19.452 17.0509 18.8914 17.0509 18.2356C17.0509 17.5798 16.6649 17.0192 15.7129 17.0192H7.16626C6.21958 17.0192 5.8335 17.5798 5.8335 18.2356C5.8335 18.8914 6.21958 19.452 7.16626 19.452ZM16.8553 12.8464V2.40109C16.8553 0.825046 17.9976 0 19.2828 0C20.568 0 21.7103 0.825046 21.7103 2.40109V12.8411H16.8553V12.8464Z" fill="#F28715"/>
<path d="M44.5105 9.83193C45.8485 9.83193 46.4303 10.657 46.4303 11.6513C46.4303 12.6455 45.8221 13.4494 44.5105 13.4494H25.619C24.3074 13.4494 23.6992 12.672 23.6992 11.6513C23.6992 10.6305 24.281 9.83193 25.619 9.83193H32.5896V8.37752H27.8297C25.6931 8.37752 24.6988 7.72172 24.6988 5.68026V2.96184C24.6988 0.946821 25.6931 0.291016 27.8297 0.291016H43.5902C44.7802 0.291016 45.362 0.946821 45.362 1.96755C45.362 2.98828 44.7538 3.59649 43.5902 3.59649H30.0404C29.7231 3.59649 29.5539 3.71813 29.5539 4.00901V4.71242C29.5539 5.0033 29.7231 5.15138 30.0404 5.15138H43.6854C44.849 5.15138 45.4836 5.75959 45.4836 6.75388C45.4836 7.74816 44.8278 8.38281 43.6854 8.38281H37.5399V9.83722H44.5105V9.83193ZM41.0886 14.613C44.2936 14.613 45.7533 16.2895 45.7533 18.7435C45.7533 21.1975 44.2989 22.8687 41.0886 22.8687H29.0461C25.8412 22.8687 24.3815 21.1922 24.3815 18.7435C24.3815 16.2948 25.8359 14.613 29.0461 14.613H41.0886ZM39.703 19.5897C40.5016 19.5897 40.8189 19.2512 40.8189 18.7382C40.8189 18.2252 40.5016 17.8867 39.703 17.8867H30.4265C29.6226 17.8867 29.3106 18.2252 29.3106 18.7382C29.3106 19.2512 29.6279 19.5897 30.4265 19.5897H39.703Z" fill="#F28715"/>
<path d="M53.4034 17.5321C55.0324 17.5321 56.0002 18.5052 56.0002 19.9861C56.0002 21.4669 55.0271 22.4401 53.4034 22.4401C51.7798 22.4401 50.8066 21.4934 50.8066 19.9861C50.8066 18.4788 51.7798 17.5321 53.4034 17.5321ZM50.9283 16.3897V2.98801C50.9283 1.41196 52.1183 0.586914 53.4034 0.586914C54.6886 0.586914 55.8786 1.4384 55.8786 2.98801V16.3897H50.923H50.9283Z" fill="#F28715"/>
</svg>
