<svg width="123" height="50" viewBox="0 0 123 50" fill="none" xmlns="http://www.w3.org/2000/svg">
<path d="M6.30885 27.0033C1.10925 27.0033 0 25.6745 0 20.4287V8.11138C0 2.854 1.10925 1.58299 6.30885 1.58299H29.7533C32.7228 1.58299 33.7859 3.44329 33.7859 5.5578C33.7859 7.78785 32.6766 9.53261 29.7533 9.53261H25.351V19.0306H31.1283C34.1556 19.0306 35.1609 20.8909 35.1609 23.0054C35.1609 25.2354 34.0978 26.9802 31.1283 26.9802H6.2973L6.30885 27.0033ZM13.4728 29.7071H36.5012C44.1966 29.7071 48.0097 33.8436 48.0097 39.8405C48.0097 45.8374 44.1851 49.974 36.5012 49.974H13.4728C5.73112 49.974 1.96429 45.6756 1.96429 39.8405C1.96429 34.0054 5.73112 29.7071 13.4728 29.7071ZM9.7637 17.9329C9.7637 18.8341 9.97169 19.0421 11.1965 19.0421H15.7606V9.54416H11.1965C9.97169 9.54416 9.7637 9.75215 9.7637 10.6534V17.9213V17.9329ZM15.6566 42.4981H34.3289C36.3972 42.4981 37.2523 41.2733 37.2523 39.8405C37.2523 38.4077 36.4088 37.1829 34.3289 37.1829H15.6566C13.5883 37.1829 12.7448 38.4077 12.7448 39.8405C12.7448 41.2733 13.5883 42.4981 15.6566 42.4981ZM36.8247 28.0663V5.24582C36.8247 1.80253 39.3206 0 42.1283 0C44.9361 0 47.4319 1.80253 47.4319 5.24582V28.0548H36.8247V28.0663Z" fill="white"/>
<path d="M97.244 21.4801C100.167 21.4801 101.438 23.2827 101.438 25.4549C101.438 27.6272 100.11 29.3835 97.244 29.3835H55.9707C53.1052 29.3835 51.7764 27.685 51.7764 25.4549C51.7764 23.2249 53.0474 21.4801 55.9707 21.4801H71.1998V18.3026H60.8006C56.1325 18.3026 53.9602 16.8698 53.9602 12.4097V6.47061C53.9602 2.06828 56.1325 0.635498 60.8006 0.635498H95.2335C97.8333 0.635498 99.1043 2.06828 99.1043 4.29833C99.1043 6.52838 97.7755 7.85717 95.2335 7.85717H65.6304C64.9371 7.85717 64.5674 8.12293 64.5674 8.75843V10.2952C64.5674 10.9307 64.9371 11.2542 65.6304 11.2542H95.4415C97.9835 11.2542 99.3701 12.583 99.3701 14.7553C99.3701 16.9276 97.9373 18.3142 95.4415 18.3142H82.015V21.4917H97.244V21.4801ZM89.7681 31.9256C96.7703 31.9256 99.9594 35.5884 99.9594 40.9498C99.9594 46.3111 96.7818 49.9624 89.7681 49.9624H63.4581C56.456 49.9624 53.2669 46.2996 53.2669 40.9498C53.2669 35.5999 56.4445 31.9256 63.4581 31.9256H89.7681ZM86.7408 42.7985C88.4856 42.7985 89.1788 42.059 89.1788 40.9382C89.1788 39.8174 88.4856 39.0779 86.7408 39.0779H66.4739C64.7176 39.0779 64.0359 39.8174 64.0359 40.9382C64.0359 42.059 64.7292 42.7985 66.4739 42.7985H86.7408Z" fill="white"/>
<path d="M116.673 38.3038C120.232 38.3038 122.347 40.4298 122.347 43.6651C122.347 46.9005 120.221 49.0265 116.673 49.0265C113.126 49.0265 111 46.9582 111 43.6651C111 40.3721 113.126 38.3038 116.673 38.3038ZM111.266 35.808V6.52842C111.266 3.08512 113.866 1.28259 116.673 1.28259C119.481 1.28259 122.081 3.1429 122.081 6.52842V35.808H111.254H111.266Z" fill="white"/>
</svg>
