<svg width="28" height="28" viewBox="0 0 28 28" xmlns="http://www.w3.org/2000/svg">
<path d="M13.7736 13.7726C12.5111 13.7726 11.4303 13.3231 10.5313 12.4241C9.63223 11.525 9.18271 10.4442 9.18271 9.18173C9.18271 7.91923 9.63223 6.83845 10.5313 5.9394C11.4303 5.04035 12.5111 4.59082 13.7736 4.59082C15.0361 4.59082 16.1169 5.04035 17.0159 5.9394C17.915 6.83845 18.3645 7.91923 18.3645 9.18173C18.3645 10.4442 17.915 11.525 17.0159 12.4241C16.1169 13.3231 15.0361 13.7726 13.7736 13.7726ZM4.5918 20.659V19.7408C4.5918 19.0904 4.75937 18.4929 5.0945 17.9481C5.42964 17.4033 5.87419 16.987 6.42816 16.6993C7.61415 16.1064 8.81926 15.6618 10.0435 15.3657C11.2677 15.0696 12.5111 14.9211 13.7736 14.9204C15.0361 14.9196 16.2795 15.068 17.5037 15.3657C18.728 15.6633 19.9331 16.1079 21.1191 16.6993C21.6738 16.9863 22.1187 17.4025 22.4539 17.9481C22.789 18.4936 22.9562 19.0912 22.9554 19.7408V20.659C22.9554 21.2903 22.7309 21.8308 22.2817 22.2807C21.8326 22.7306 21.292 22.9552 20.66 22.9545H6.88725C6.256 22.9545 5.7158 22.7299 5.26666 22.2807C4.81752 21.8316 4.59256 21.291 4.5918 20.659Z"/>
</svg>
