<svg width="15" height="15" viewBox="0 0 15 15" fill="none" xmlns="http://www.w3.org/2000/svg">
<g clip-path="url(#clip0_38_3653)">
<path d="M7.49258 0.078125C3.3957 0.078125 0.078125 3.40312 0.078125 7.5C0.078125 11.5969 3.3957 14.9219 7.49258 14.9219C11.5969 14.9219 14.9219 11.5969 14.9219 7.5C14.9219 3.40312 11.5969 0.078125 7.49258 0.078125ZM10.4687 10.4687C10.4001 10.5376 10.3185 10.5921 10.2287 10.6294C10.139 10.6666 10.0427 10.6858 9.94551 10.6858C9.8483 10.6858 9.75205 10.6666 9.66227 10.6294C9.57248 10.5921 9.49093 10.5376 9.42226 10.4687L6.98047 8.02695C6.91034 7.95821 6.85455 7.87624 6.81633 7.78579C6.77811 7.69533 6.75822 7.5982 6.75781 7.5V4.53125C6.75781 4.12305 7.0918 3.78906 7.5 3.78906C7.9082 3.78906 8.24219 4.12305 8.24219 4.53125V7.1957L10.4687 9.42226C10.7582 9.71172 10.7582 10.1793 10.4687 10.4687Z" fill="#CCCCCC"/>
</g>
<defs>
<clipPath id="clip0_38_3653">
<rect width="15" height="15" fill="white"/>
</clipPath>
</defs>
</svg>
