<svg width="10" height="12" viewBox="0 0 10 12" fill="none" xmlns="http://www.w3.org/2000/svg">
<path d="M1.53588 1.83477C1.99089 1.37971 2.53108 1.01873 3.12561 0.772452C3.72014 0.526173 4.35736 0.399414 5.00088 0.399414C5.6444 0.399414 6.28161 0.526173 6.87614 0.772452C7.47067 1.01873 8.01086 1.37971 8.46588 1.83477C9.38495 2.7544 9.90124 4.00135 9.90124 5.30152C9.90124 6.60168 9.38495 7.84864 8.46588 8.76827L7.67628 9.54807L5.97178 11.2071C5.72692 11.444 5.40383 11.5832 5.06343 11.5985C4.72302 11.6137 4.3888 11.5038 4.12378 11.2897L4.03068 11.2071L2.60058 9.81757L1.53658 8.76827C0.617713 7.84867 0.101563 6.60186 0.101562 5.30187C0.101563 4.00188 0.617713 2.75507 1.53658 1.83547M5.00088 3.54977C4.53675 3.54977 4.09163 3.73414 3.76344 4.06233C3.43525 4.39052 3.25088 4.83564 3.25088 5.29977C3.25088 5.7639 3.43525 6.20902 3.76344 6.5372C4.09163 6.86539 4.53675 7.04977 5.00088 7.04977C5.46501 7.04977 5.91012 6.86539 6.23831 6.5372C6.5665 6.20902 6.75088 5.7639 6.75088 5.29977C6.75088 4.83564 6.5665 4.39052 6.23831 4.06233C5.91012 3.73414 5.46501 3.54977 5.00088 3.54977Z" fill="#6E6E6E"/>
</svg>
